<svg xmlns="http://www.w3.org/2000/svg" viewBox="0 0 150.61 110.17"><defs><style>.cls-1{fill:#fff;}.cls-2{opacity:0.07;}.cls-3{opacity:0.8;}.cls-4{fill:#0096c8;}.cls-5{opacity:0.3;}.cls-6{opacity:0.5;}.cls-7{opacity:0.6;}.cls-8{opacity:0.4;}.cls-9{opacity:0.15;}.cls-10{opacity:0.7;}</style></defs><title>web-background-light</title><g id="Layer_2" data-name="Layer 2"><g id="Layer_1-2" data-name="Layer 1"><rect class="cls-1" x="0.33" width="150" height="109.75"/><g class="cls-2"><g class="cls-3"><path class="cls-4" d="M50.68,71.48l-.34-.35-5,4.81-6.65-1.89-.13,0-5.07,4.91L27,77.06,25.3,70.22l-6.78-1.93L17.4,62.73,17,60.91l-.48.1.37,1.83,1.13,5.56-4.87,4.72L8.85,71.89l-2.18-.62-.21-.83v-.06h0l-.15-.58-.75-3A2.57,2.57,0,0,0,7,64.58a2.11,2.11,0,0,0-.07-.79A2.18,2.18,0,0,0,5.32,62.2a2.27,2.27,0,0,0-2.86,1.51L0,63v.51H0l.55.15,1.75.5a2.44,2.44,0,0,0,.27,1.66l0,0a1.1,1.1,0,0,0,.18.26.73.73,0,0,0,.17.18,1.59,1.59,0,0,0,.24.2l0,0a2.59,2.59,0,0,0,.75.34,2.41,2.41,0,0,0,1.09.06l.54,2.13h0l.14.57.36,1.44.08.3-.11.11L1.34,76.1,0,75.72v.5l1.47.42.11-.1L6.25,72l.29-.28,2,.58L13,73.59l1.65,6.57-1,1-3.4,3.29-.61.6.94,3.75.77,3.09L8.92,94.26l-.13.12-.24.24-2.07,2L0,94.77v.52l6.34,1.8.19.74.08.33.7,2.76.13.53A2.37,2.37,0,0,0,5.92,103a2,2,0,0,0-.15.69,1.89,1.89,0,0,0,0,.41,2.2,2.2,0,0,0,.5,1.29l-3.12,3L0,107.48v.5l3.28.94,3.33-3.22a2.45,2.45,0,0,0,.84.42c3,.86,4.34-3.81,1.33-4.67a2.21,2.21,0,0,0-.49-.09,2.16,2.16,0,0,0-.36,0l-.08-.3L7,97.75,7,97.42,6.83,97l1.86-1.8.24-.23.12-.13,2.63-2.54,6.5,1.85,1.64,6.52.08.32,6.77,1.93,1.26,7.29h.49l-1.27-7.39,5.07-4.92L30.5,91l4.87-4.72,6.79,1.94,5.27-5.11-1.72-6.84Zm-37.15,2,4.85-4.71,6.51,1.86,1.65,6.56-3.23,3.12a2.38,2.38,0,0,0-.91-.47,2.28,2.28,0,0,0-2.85,1.47L15.18,80ZM11.81,91.79l-1.64-6.56,4.88-4.72,4.37,1.25a2.26,2.26,0,0,0,1.64,2.73,2.31,2.31,0,0,0,1,.08l1.09,4.36-4.87,4.71ZM31.68,97.7l-4.86,4.72-6.5-1.85L18.67,94l4.86-4.71L30,91.13Zm-1.52-7-6.49-1.86-1.1-4.36a2.6,2.6,0,0,0,1.09-3.8l3.22-3.12,6.5,1.85L35,86ZM46.89,83,42,87.69l-6.51-1.85-1.65-6.57,4.86-4.72,6.52,1.86Z"/><path class="cls-4" d="M56.88,83.33a2.26,2.26,0,0,0-2.83,1.44l-5.74-1.64-1.63-6.69-.47.11,1.66,6.83,0,.14,6,1.71A2.27,2.27,0,0,0,55.55,88C58.56,88.86,59.89,84.19,56.88,83.33Z"/><path class="cls-4" d="M37.88,108.35a2.25,2.25,0,0,1-1.64-2.74l-8-2.27,1,6.83h-.49l-1.15-7.5,8.68,2.47a2.27,2.27,0,0,1,2.84-1.46C42.22,104.54,40.89,109.21,37.88,108.35Z"/><path class="cls-4" d="M37,70a3.09,3.09,0,0,0,.77.09l.5,3.35-5,4.84.34.35,5.06-4.93.09-.09L38.21,70c2.06-.52,2.63-4,.07-4.7C35.27,64.42,33.94,69.09,37,70Z"/><path class="cls-4" d="M11,91.69l-.47.12-.61-2.38L8.82,85.09l-3.45-1L5,84l-1.5-.43a2.27,2.27,0,0,1-2.38,1.63H1.09a2.12,2.12,0,0,1-.41-.08A2.19,2.19,0,0,1,.27,85,1.75,1.75,0,0,1,0,84.81v-4a2.21,2.21,0,0,1,2-.33,2.26,2.26,0,0,1,1.66,2.66l1.77.51.33.09,3.45,1,1.12,4.35Z"/></g><g class="cls-5"><path class="cls-4" d="M33,12.47l-5.83,1.31-4.05-4.4L23,9.29l-6,1.34-4-4.31L14.9.5,14.6.17H14l.4.44L12.68,6.19,8.89,7a2.22,2.22,0,0,0-.47-.76,2,2,0,0,0-2.76-.2L3,3.18l.93-3H3.48L2.59,3.05l-1.24.27L0,3.63v.44l2.69-.61,2.66,2.9a2,2,0,0,0,0,2.76,2.12,2.12,0,0,0,.71.52L4.89,13.35,0,14.44v.44l5-1.12,4,4.3L7.2,23.65,1.49,24.93,0,23.32v.62l1.17,1.27L0,28.15V29.3l1.57-3.94,6-1.35,1.82-5.82,5.72-1.28,4.14,4.49L25.4,20l1.81-5.83,5.84-1.3Zm-18,4L9.26,17.78l-4-4.31,1.16-3.7A2.25,2.25,0,0,0,9,7.46l3.78-.85,4,4.3Zm10.09,3.16-5.72,1.29-4-4.32L17.13,11l5.72-1.28,4,4.3Z"/><path class="cls-4" d="M32.28,24.42a2,2,0,0,0-2.74-.22L26,20.41l1.82-5.67-.4-.13-1.85,5.78,0,.12,3.66,4a2,2,0,0,0,0,2.78C31,29.26,34.11,26.41,32.28,24.42Z"/><path class="cls-4" d="M7,34.31a2,2,0,0,1,0-2.77L2.15,26.27,0,31.42V30.33l2-4.82,5.3,5.74a2,2,0,0,1,2.75.21C11.89,33.45,8.8,36.29,7,34.31Z"/><path class="cls-4" d="M23.61,5.56a2.17,2.17,0,0,0,.53.41L23,8.66,17.13,10l.1.41,6-1.35.11,0,1.23-2.89c1.75.55,3.73-1.74,2.17-3.43C24.87.72,21.78,3.56,23.61,5.56Z"/></g><g class="cls-3"><path class="cls-4" d="M60.63,56.82l-.21-.2L57.32,60l-4-1.15-.06.06-2.95,2.86-3.86-1.1-1-3.91,3-2.92-1-4.06L50.32,47l4,1.15,3.14-3-1-4.07,1.94-1.8a1.13,1.13,0,0,0,.86.34,1.25,1.25,0,1,0-1-.56l-2,1.81-4-1.15-2,1.92a1.38,1.38,0,0,0-.5-.25A1.45,1.45,0,0,0,49,44.1a1.52,1.52,0,0,0,.51,0l.65,2.61-2.88,2.8-3.87-1.1-1-4.07-4-1.15-.63-3.59a1.25,1.25,0,1,0-.44.08.41.41,0,0,0,.16,0l.63,3.6-3,2.92,1,4.07-2.89,2.8-4-1.15L26,55l1,4.07-2.95,2.86.2.2,2.95-2.85,3.95,1.12.09,0,3-2.91,3.86,1.1,1,4.07,4,1.14.89,4.39.28-.06-.89-4.39,2.9-2.81L50.2,62l.67,2.65A1.47,1.47,0,0,0,51,67.43a1.35,1.35,0,0,0,1.7-.9l2.71.77,3.13-3-1-4.07ZM49.75,44.1a1.52,1.52,0,0,0,.7-2.33L52.3,40l3.87,1.1,1,3.91-2.89,2.8-3.86-1.1Zm-2.6,5.74,1,3.89-2.9,2.81-2.6-.74a1.36,1.36,0,0,0-1-1.63,1.43,1.43,0,0,0-.61,0l-.65-2.59,2.89-2.8ZM35.34,46.32l2.89-2.8,3.86,1.1,1,3.91-2.89,2.8-3.86-1.1ZM31.15,60.08,27.28,59l-1-3.91,2.89-2.8,3.88,1.1,1,3.91Zm3.18-2.87-1-3.9,2.89-2.81,3.86,1.1.66,2.6a1.54,1.54,0,0,0-.65,2.25l-1.92,1.86Zm8.92,6.32-3.88-1.11-1-3.89,1.91-1.86a1.5,1.5,0,0,0,.55.28,1.34,1.34,0,0,0,1.69-.87l2.6.74,1,3.91Zm15,.64L55.34,67l-2.56-.72a1.41,1.41,0,0,0-1.63-1.64L50.48,62l2.9-2.8,3.87,1.11Z"/><path class="cls-4" d="M58.16,60.3l-.28.07,1,4.05,0,.09,3.82,1.08a1.35,1.35,0,0,0,1,1.62,1.45,1.45,0,0,0,.79-2.78,1.34,1.34,0,0,0-1.69.89l-3.65-1Z"/><path class="cls-4" d="M20.36,54.86A1.33,1.33,0,0,0,22,54l3.42,1,1,4,.28-.06-1-4.06,0-.08-3.57-1a1.35,1.35,0,0,0-1-1.65A1.45,1.45,0,0,0,20.36,54.86Z"/><path class="cls-4" d="M32.21,62.81a2,2,0,0,0-.46-.05l-.29-2,3-2.88-.21-.21-3,2.93-.05.06.31,2.13a1.46,1.46,0,0,0-.05,2.79A1.45,1.45,0,0,0,32.21,62.81Z"/><path class="cls-4" d="M53.77,53.8a1.35,1.35,0,0,0-1.71.91l-3.13-.89-1-4-.28.07,1.07,4.16L52,55a1.33,1.33,0,0,0,1,1.58A1.44,1.44,0,0,0,53.77,53.8Z"/></g><g class="cls-6"><path class="cls-4" d="M96.21,57.46,93,55.52l-.14-3.42a.63.63,0,1,0-.26,0l.14,3.42-3.3,1.84v.07l-.06,3.7-3.16,1.76L83.08,61l0-3.78L79.9,55.31l0-3.62,3.3-1.84,0-1.26v-.28l0-2.38L80.07,44l0-.49.06-1.59,0-1.48H80l-.07,1.82h0l0,.93,0,.79-3.3,1.84,0,2.48a1.3,1.3,0,1,0,.78,2.43,1.31,1.31,0,0,0,.36-.29l2.08,1.25-.06,3.62-3.16,1.76-3.24-1.94L69.94,57l-3.5-2.46-.15.21,3.51,2.47L69.74,61,73,62.9l-.06,3.63-3.3,1.84-.07,3.93,3.25,1.94,0,3a.62.62,0,0,0,.08,1.24A.63.63,0,0,0,73,77.29l0-3.05,3.23-1.8.07,0,.06-3.77,3.16-1.76,3.24,1.94L86.12,67,89,68.86a.61.61,0,0,0,.56.84.63.63,0,0,0,0-1.25.58.58,0,0,0-.44.18l-2.83-1.88,0-3.63,3.17-1.76,2.11,1.27a1.32,1.32,0,0,0,1.83,1.65,1.22,1.22,0,0,0,.51-1.66l2.22-1.23ZM77.76,50.22a1.37,1.37,0,0,0-1-1.93l0-2.31,3.17-1.77L83,46.08l0,2.48,0,1.14-3.16,1.76ZM70,60.82l.06-3.63,3.16-1.76,3.11,1.87-.06,3.62-3.16,1.76Zm6.1,11.43L72.93,74l-3.11-1.86.06-3.63L73,66.76l3.12,1.86Zm3.35-5.61L76.29,68.4l-3.11-1.86.06-3.63,3.16-1.76,2.07,1.24a1.39,1.39,0,0,0,1,1.85ZM79,61.8a1.36,1.36,0,0,0-.42.36l-2.06-1.24.06-3.62,3.16-1.76,3.11,1.86L82.81,61l-2.13,1.19A1.21,1.21,0,0,0,79,61.8Zm7,4.94-3.17,1.77-3.11-1.86,0-2.41a1.26,1.26,0,0,0,.53-.17,1.21,1.21,0,0,0,.52-1.63l2.12-1.18,3.12,1.86Zm9.89-5.5L93.8,62.4A1.2,1.2,0,0,0,92.16,62a1.21,1.21,0,0,0-.44.39l-2.11-1.26.06-3.63,3.17-1.76L96,57.61Z"/><path class="cls-4" d="M93.44,55.19l-.13.22,3.21,2,.06,0,3.13-1.73a1.21,1.21,0,0,0,1.65.4,1.3,1.3,0,0,0-1.27-2.27,1.2,1.2,0,0,0-.51,1.64l-3,1.66Z"/><path class="cls-4" d="M65.9,75.8a1.22,1.22,0,0,0,.53-1.62l2.79-1.55,3.15,1.91.14-.22-3.22-1.95-.06,0L66.3,74a1.21,1.21,0,0,0-1.66-.43A1.3,1.3,0,0,0,65.9,75.8Z"/><path class="cls-4" d="M64.89,61.4a1.2,1.2,0,0,0,.52-1.62l4.22-2.35-3.48-2.57-.16.21,3.16,2.32-3.87,2.16a1.21,1.21,0,0,0-1.66-.42A1.3,1.3,0,0,0,64.89,61.4Z"/><path class="cls-4" d="M78.51,73.32a1.18,1.18,0,0,0-.32.26l-1.46-1.09,0-3.72h-.26l0,3.79v.06L78,73.78a1.32,1.32,0,0,0,1.75,1.81A1.3,1.3,0,0,0,78.51,73.32Z"/><path class="cls-4" d="M86.5,53.84a1.22,1.22,0,0,0-.5,1.67l-2.57,1.43-3.2-1.89-.13.22,3.33,2,2.7-1.51a1.22,1.22,0,0,0,1.64.39A1.31,1.31,0,0,0,86.5,53.84Z"/></g><g class="cls-7"><path class="cls-4" d="M108.16,44.51a.63.63,0,0,0-.49,1l-1.58,1.71-2.79-.79,0,0-2,2-2.68-.76L97.85,45l2.09-2-.71-2.82,2-1.94L104,39l2.17-2.11-.7-2.82,2-1.86-.14-.14-2,1.86-2.8-.8-1.37,1.33a1.14,1.14,0,0,0-.35-.17,1,1,0,0,0-.55,1.92,1.11,1.11,0,0,0,.35,0l.46,1.81-2,1.94-2.68-.76-.71-2.82-2.79-.8-.56-3.24-.2,0,.56,3.25-2.09,2,.71,2.82-2,1.94-2.8-.79-2.17,2.1.71,2.82-1.79,1.73-.26.25.14.15.12-.12,1.93-1.87,2.74.79H88l2.09-2,2.68.76.71,2.82,2.79.8.49,2.44A.63.63,0,0,0,97,53.51a.63.63,0,0,0,0-1.25H97l-.5-2.44,2-1.94,2.68.76.46,1.85a1,1,0,0,0,.1,1.89.94.94,0,0,0,1.18-.62l1.88.53,2.17-2.1-.71-2.83,1.58-1.71a.63.63,0,1,0,.35-1.15Zm-7.32-8.3a1.05,1.05,0,0,0,.48-1.61l1.29-1.24,2.68.76.68,2.71-2,1.94L101.29,38Zm-1.81,4,.68,2.7-2,2-1.8-.51a.94.94,0,0,0-.68-1.13,1,1,0,0,0-.42,0l-.45-1.8,2-1.94Zm-8.19-2.44,2-1.94,2.68.77.68,2.7-2,1.95-2.68-.77Zm-2.9,9.55-2.68-.77-.68-2.71,2-1.94,2.69.77.68,2.7Zm2.2-2-.68-2.71,2-1.94,2.68.76.45,1.8a1.07,1.07,0,0,0-.45,1.56l-1.33,1.29Zm6.19,4.38-2.69-.77L93,46.22l1.33-1.29a1.06,1.06,0,0,0,.38.2.93.93,0,0,0,1.17-.61l1.81.52.68,2.71Zm10.39.44-2,1.95-1.77-.51a.92.92,0,0,0-.68-1.1.88.88,0,0,0-.45,0l-.46-1.84,2-1.94,2.69.77Z"/><path class="cls-4" d="M106.67,47.45l-.2,0,.69,2.81v.06l2.65.75a.93.93,0,0,0,.68,1.12,1,1,0,0,0,.55-1.93,1,1,0,0,0-1.18.62l-2.53-.72Z"/><path class="cls-4" d="M105.86,34.13l-.19,0,.75,2.88,1.75.5a.93.93,0,0,0,.68,1.09,1,1,0,0,0,.55-1.92.93.93,0,0,0-1.18.63l-1.64-.46Z"/><path class="cls-4" d="M80.45,43.68a.94.94,0,0,0,1.17-.59l2.37.67.67,2.76.19-.05-.68-2.81V43.6l-2.48-.71A.94.94,0,0,0,81,41.75,1,1,0,0,0,80.45,43.68Z"/><path class="cls-4" d="M87.74,35.29a.93.93,0,0,0,1.17-.6l3.58,1-.5-3.3-.2,0,.45,3L89,34.5a.94.94,0,0,0-.67-1.14A1,1,0,0,0,87.74,35.29Z"/><path class="cls-4" d="M88.67,49.19a.89.89,0,0,0-.32,0l-.2-1.38,2-2-.14-.14-2.09,2,0,0,.21,1.48a1,1,0,0,0,0,1.94A1,1,0,0,0,88.67,49.19Z"/><path class="cls-4" d="M103.62,42.94a.94.94,0,0,0-1.18.63L100.27,43l-.72-2.77-.19,0,.74,2.89,2.29.65a.94.94,0,0,0,.68,1.1A1,1,0,0,0,103.62,42.94Z"/></g><path class="cls-4" d="M68.92,103.12l-.14-.14-2.15,2.33-2.79-.79-.05,0-2,2-2.68-.76-.68-2.71,2.09-2-.71-2.82,2-2,2.79.8L66.74,95,66,92.16,67.5,90.8a.64.64,0,0,0,.38.12.63.63,0,1,0-.51-.28L65.89,92l-2.8-.8-1.37,1.33a1.14,1.14,0,0,0-.35-.17,1,1,0,0,0-.55,1.92.88.88,0,0,0,.35,0l.46,1.81-2,1.94L57,97.32l-.71-2.82-2.79-.8-.56-3.24-.2,0,.56,3.26-2.09,2,.71,2.82-2,2-2.79-.8-2.18,2.1.71,2.82-2.05,2,.14.14,2.05-2,2.74.78h.06l2.09-2,2.68.76.71,2.83,2.79.79.45,2.21h.2L57,107.92l2-2,2.68.76.47,1.85a1.06,1.06,0,0,0-.39,1.59h1.48a.92.92,0,0,0,.18-.32l1.14.32h1l2-1.89-.71-2.82Zm-7.54-8.83a1.06,1.06,0,0,0,.49-1.61l1.28-1.24,2.68.76.68,2.71-2,1.94-2.68-.76Zm-1.81,4,.68,2.7-2,1.94-1.8-.51a.94.94,0,0,0-.68-1.13,1,1,0,0,0-.42,0l-.45-1.8,2-1.94Zm-8.19-2.44,2-2,2.68.77.68,2.71-2,1.94-2.68-.77Zm-2.9,9.54-2.68-.77-.68-2.7,2-2,2.69.77.68,2.71Zm2.2-2L50,100.68l2-1.94,2.68.76.45,1.8a1.07,1.07,0,0,0-.45,1.56l-1.33,1.29Zm6.19,4.38L54.18,107l-.68-2.7L54.83,103a.92.92,0,0,0,.38.2.93.93,0,0,0,1.17-.61l1.81.52.68,2.71Zm10.39.45-2,1.94-1.77-.51a.92.92,0,0,0-.68-1.1,1,1,0,0,0-.45,0l-.46-1.83,2-2,2.69.77Z"/><path class="cls-4" d="M71.88,110.17H70.72a1,1,0,0,1-.36-1l-2.65-.76v-.06L67,105.58l.19,0,.67,2.76,2.53.72a.94.94,0,0,1,1.18-.61A1,1,0,0,1,71.88,110.17Z"/><path class="cls-4" d="M66.4,92.21l-.19.05L67,95.14l1.75.5a.93.93,0,0,0,.68,1.09,1,1,0,0,0,.55-1.92.94.94,0,0,0-1.18.63L67.13,95Z"/><path class="cls-4" d="M41,101.76a.93.93,0,0,0,1.16-.59l2.37.67.67,2.76.2,0-.69-2.81v-.06L42.22,101a.94.94,0,0,0-.67-1.14A1,1,0,0,0,41,101.76Z"/><path class="cls-4" d="M48.28,93.37a.93.93,0,0,0,1.17-.6l3.58,1-.5-3.3-.2,0,.46,3-3.28-.93a1,1,0,0,0-.68-1.14A1,1,0,0,0,48.28,93.37Z"/><path class="cls-4" d="M49.21,107.27a.89.89,0,0,0-.32,0l-.2-1.38,2.05-2-.14-.14-2.09,2,0,0,.22,1.48a1,1,0,0,0,0,1.94A1,1,0,0,0,49.21,107.27Z"/><path class="cls-4" d="M64.16,101a.94.94,0,0,0-1.18.63L60.81,101l-.72-2.77-.19,0,.75,2.89,2.28.65a.94.94,0,0,0,.69,1.1A1,1,0,0,0,64.16,101Z"/><g class="cls-6"><path class="cls-4" d="M120.64,30.11l0-1.94-1.66-1,0-1.86,1.69-.95,0-2-1.67-1,0-1.9H119l0,1.9-1.66.92,0,0,0,1.94-1.62.9-1.66-1-1.69.94L110.54,24l-.07.11,1.73,1.14,0,1.87-1.63.9-1.08-.65a.68.68,0,0,0-.94-.85.62.62,0,0,0-.26.85l-1.14.63,0,2,1.66,1,.09,2.11H109L108.89,31l1.69-.95v0l0-1.9,1.62-.91,1.6,1,0,1.94,1.66,1,0,1.86-1.69.94,0,2,1.66,1-.07,1.83h.13l.07-1.82,1.7-1,0-1.27a.57.57,0,0,0,.24-.08.67.67,0,0,0-.64-1.17,1,1,0,0,0-.19.15l-1.07-.64,0-1.85,1.63-.91,1.66,1,1.69-.94,1.79,1.26.08-.11ZM110.44,30l-1.62.9-1.6-1,0-1.86,1.07-.59a.63.63,0,0,0,.85.2.72.72,0,0,0,.22-.2l1.08.64Zm7-7.57,1.62-.9,1.6.95,0,1.86L119,25.2l-1.6-1Zm-5.11,4.68,0-1.85L114,24.3l1.59,1,0,1.23a.72.72,0,0,0-.27.09.62.62,0,0,0-.27.84l-1.09.6Zm4.25,6.62a.72.72,0,0,0,.54,1l0,1.19-1.63.9-1.6-1,0-1.86,1.63-.9Zm.6-3.62-1.62.9-1.59-1,0-1.86,1.1-.61a.61.61,0,0,0,.85.21.63.63,0,0,0,.21-.18l1.06.63Zm-1-2.62a.72.72,0,0,0-.52-1l0-1.23,1.62-.9,1.59.95,0,1.87-1.63.9Zm4.32,2.67-1.62.9-1.6-1,0-1.87,1.62-.9,1.6,1Z"/><path class="cls-4" d="M108.51,31.13l.07-.11-1.65-1,0,0-1.61.89a.61.61,0,0,0-.84-.21.67.67,0,0,0,.64,1.17.63.63,0,0,0,.27-.85l1.53-.85Z"/><path class="cls-4" d="M115.17,37l.07-.11-1.72-1-1.06.59a.61.61,0,0,0-.83-.19.67.67,0,0,0,.64,1.17.63.63,0,0,0,.26-.86l1-.55Z"/><path class="cls-4" d="M122.64,20.56a.62.62,0,0,0-.27.83l-1.43.79-1.62-1-.07.11,1.65,1,0,0,1.5-.84a.62.62,0,0,0,.86.22A.67.67,0,0,0,122.64,20.56Z"/><path class="cls-4" d="M123.16,27.94a.63.63,0,0,0-.27.84L120.73,30l1.79,1.32.07-.11L121,30l2-1.1a.62.62,0,0,0,.85.21A.67.67,0,0,0,123.16,27.94Z"/><path class="cls-4" d="M116.17,21.83a.76.76,0,0,0,.17-.13l.74.55,0,1.91h.13l0-1.94v0l-.8-.6a.68.68,0,0,0-.9-.93A.67.67,0,0,0,116.17,21.83Z"/><path class="cls-4" d="M112.07,31.82a.62.62,0,0,0,.26-.85l1.31-.73,1.65,1,.06-.11-1.7-1-1.39.77a.63.63,0,0,0-.84-.19A.67.67,0,0,0,112.07,31.82Z"/></g><g class="cls-3"><path class="cls-4" d="M88.33,109.87l-.92-1.66,0,0-1.94,0-.9-1.62,1-1.66-1-1.7,1.15-1.72-.11-.07-1.15,1.72-1.86,0-.91-1.62.66-1.09a.67.67,0,0,0,.84-.94.63.63,0,0,0-.85-.26L81.74,98l-2,0-1,1.67-2.12.09v.13l2.11-.09.94,1.69h0l1.9,0,.9,1.62-1,1.59-1.94,0-1,1.67-1.86,0-.94-1.69-2,0-1,1.66L71,106.2v.13l1.83.07.94,1.7,1.27,0a.75.75,0,0,0,.08.24.67.67,0,0,0,1.17-.65.65.65,0,0,0-.15-.18l.64-1.07,1.86,0,.9,1.62-1,1.67.22.39h.15l-.22-.39,1-1.59,1.86,0,.9,1.62-.2.33h.16l.16-.26,1.86,0,.13.23h.16l-.17-.3,1-1.59,1.86,0,.91,1.62-.14.24h.15l.1-.17,1.9,0v-.13Zm-8.58-8.53-.91-1.62,1-1.6,1.86,0,.6,1.07a.62.62,0,0,0-.2.84.57.57,0,0,0,.2.23l-.65,1.08ZM76,107.45a.71.71,0,0,0-1,.53l-1.19,0-.91-1.62,1-1.6,1.86,0,.9,1.62Zm6.62-4.25,1.86,0,.9,1.62-1,1.6-1.24,0a.56.56,0,0,0-.08-.27.62.62,0,0,0-.84-.27l-.61-1.09Zm-3,4.85-.9-1.62,1-1.6,1.87,0,.6,1.09a.64.64,0,0,0-.21.86.63.63,0,0,0,.18.21l-.63,1.06Zm4.74,1.75-1.86,0-.9-1.62.63-1.06a.71.71,0,0,0,1-.53l1.23,0,.91,1.63Z"/><path class="cls-4" d="M78.56,99.4l.11.07,1-1.65,0,0-.9-1.6a.62.62,0,0,0,.21-.85.67.67,0,0,0-1.17.65.63.63,0,0,0,.85.26l.85,1.54Z"/><path class="cls-4" d="M72.66,106.06l.11.07,1-1.71-.59-1.06a.63.63,0,0,0,.19-.84.67.67,0,0,0-1.16.65.62.62,0,0,0,.85.26l.56,1Z"/><polygon class="cls-4" points="88.41 110.17 88.37 110.17 88.38 110.15 88.41 110.17"/><path class="cls-4" d="M87.86,107.06a.79.79,0,0,0,.14.17l-.56.75-1.91,0v.14l1.94,0h0l.59-.8c.5.3,1.28-.26.93-.89A.67.67,0,0,0,87.86,107.06Z"/><path class="cls-4" d="M77.87,103a.62.62,0,0,0,.85.26l.74,1.32-1,1.64.11.07,1-1.71-.77-1.39a.6.6,0,0,0,.19-.83A.66.66,0,0,0,77.87,103Z"/></g><g class="cls-3"><path class="cls-4" d="M98.15,108.92l-1.29-.37-.28-1.4-.09,0,.28,1.4-.92.9-1.24-.35-.21-.85a.47.47,0,0,0-.05-.88.44.44,0,0,0-.54.29l-.87-.25-1,1,.33,1.3-.42.46H92l.37-.4,1.29.37,0,0,1-.91,1.23.35.16.61h.09l-.16-.64.93-.89,1.24.35.29,1.18h.1ZM93.6,110l-1.24-.36L92,108.43l.93-.89.82.23a.42.42,0,0,0,.31.51.38.38,0,0,0,.21,0l.21.85Zm9.38-.88-.07-.07L102,110l-1.26-.36h0l-.55.53h.14l.44-.43,1.23.36,0,.07h.1l0-.1Z"/><path class="cls-4" d="M92.07,109.67l.08,0-.31-1.3v0L90.61,108a.43.43,0,0,0-.31-.52.46.46,0,0,0-.25.89.43.43,0,0,0,.54-.29l1.17.34Z"/><polygon class="cls-4" points="102.24 110.17 102.14 110.17 102.13 110.12 102.22 110.1 102.24 110.17"/><path class="cls-4" d="M100.61,108.87l.1.69h0l-.61.6h-.14l.67-.65-.1-.64a.34.34,0,0,1-.14,0,.46.46,0,1,1,.24,0Z"/></g><g class="cls-8"><path class="cls-4" d="M136.9,24l-1.32-.79-.07-1.68h-.11l.07,1.68-1.34.74v0l0,1.51-1.29.71-1.26-.75,0-1.54-1.32-.79,0-1.47,1.34-.75,0-1.59-1.32-.79.06-1.45h-.1l-.06,1.45-1.34.74,0,1a.49.49,0,0,0-.19.07.53.53,0,0,0,.51.92.33.33,0,0,0,.14-.12l.85.51,0,1.47-1.29.72L127.56,23l-1.34.74-1.42-1-.06.09,1.42,1,0,1.54,1.31.79,0,1.47-1.34.75,0,1.59,1.32.79,0,1.51h.1l0-1.51,1.32-.73h0l0-1.54,1.29-.71,1.31.79,1.34-.75,1.37.91.06-.09-1.37-.91,0-1.47,1.29-.72.86.52a.54.54,0,0,0,.74.67.49.49,0,0,0,.21-.68l.9-.5ZM129.4,21a.55.55,0,0,0-.42-.78v-.94l1.29-.72,1.26.76,0,1.47-1.28.72Zm-3.16,4.31,0-1.47,1.28-.72,1.27.76,0,1.47-1.28.72ZM128.72,30l-1.29.71L126.17,30l0-1.48,1.29-.72,1.26.76Zm1.37-2.28-1.29.71-1.26-.76,0-1.47,1.28-.72.84.51a.57.57,0,0,0,.42.75Zm-.18-2a.61.61,0,0,0-.17.14l-.84-.5,0-1.47,1.29-.72,1.26.76,0,1.48-.87.48A.48.48,0,0,0,129.91,25.74Zm2.83,2-1.28.71-1.27-.75,0-1a.44.44,0,0,0,.21-.07.48.48,0,0,0,.21-.66l.87-.48,1.27.76Zm4-2.24-.85.47a.5.5,0,0,0-.67-.16.57.57,0,0,0-.18.16l-.86-.51,0-1.47,1.28-.72,1.27.76Z"/><path class="cls-4" d="M135.77,23.05l-.05.09,1.3.79,0,0,1.27-.71a.5.5,0,0,0,.67.17.53.53,0,0,0-.52-.93.5.5,0,0,0-.21.67l-1.21.68Z"/><path class="cls-4" d="M130.49,18.38l-.05.09,1.36.79.84-.46a.49.49,0,0,0,.66.15.53.53,0,0,0-.51-.92.49.49,0,0,0-.21.68l-.78.43Z"/><path class="cls-4" d="M124.58,31.43a.5.5,0,0,0,.21-.66l1.14-.63,1.28.78.05-.09L126,30h0l-1.19.66a.5.5,0,0,0-.68-.18A.53.53,0,0,0,124.58,31.43Z"/><path class="cls-4" d="M124.16,25.58a.5.5,0,0,0,.22-.67l1.71-.95-1.41-1-.07.08,1.29.95-1.57.87a.51.51,0,0,0-.68-.17A.53.53,0,0,0,124.16,25.58Z"/><path class="cls-4" d="M129.7,30.42l-.13.1-.59-.44,0-1.51h-.11l0,1.54v0l.64.47a.53.53,0,1,0,.19-.19Z"/><path class="cls-4" d="M133,22.5a.51.51,0,0,0-.21.68l-1,.58L130.4,23l-.05.09,1.35.8,1.1-.61a.48.48,0,0,0,.66.16A.53.53,0,0,0,133,22.5Z"/></g></g><g class="cls-9"><path class="cls-4" d="M8.31,38.65,5.54,35.7l.78-2.58a1.55,1.55,0,0,0,1.73-1.61l2.62-.61,2.76,3-1.17,3.88ZM17.66,33l2.77,3-1.17,3.88-4,.92-2.77-3,1.17-3.88ZM10.6,30.61,8,31.22a1.6,1.6,0,0,0-.33-.53,1.35,1.35,0,0,0-1.91-.12l-1.86-2,1.18-3.89L9,23.78l2.77,3Zm14.08,4.23-4,.94-2.83-3,0-.06-4.11,1-2.77-2.95,1.22-4.05L9.34,23.71l-.12-.13,1.5-4.24-.27-.09L8.94,23.5,5,24.42l-2.78-3L3,18.83a1.49,1.49,0,0,0,1.31-2.44,1.37,1.37,0,0,0-1.95-.1L.45,14.22l-.11,0v.3h0l1.83,1.94a1.36,1.36,0,0,0,0,1.89,1.38,1.38,0,0,0,.54.37L2,21.38l-.9.21-.54.13-.17,0v.29L.74,22l.55-.13L2,21.67l2.76,2.95,0,.16L3.6,28.49l-.82.19-.32.08-.54.12-1.58.38v.31l3.34-.78,1.86,2a1.35,1.35,0,0,0,0,1.91A1.3,1.3,0,0,0,6,33l-.78,2.57-3.95.92-1-1v.43l.75.8L.34,39.21v1l1-3.42,4-.92,2.76,3-.82,2.72-.35,1.16L3,43.65l0,0-2-2.16-.58-.61v.42l0,0,2.38,2.54L1,48.31l.26.1L3,43.94l.12,0,1.49-.34L7.15,43l.19-.62,1-3.42,4-.92,2.89,3.08,2.05-.48.48-.11,1.74-.4,1.23-4,4-1Z"/><path class="cls-4" d="M24.28,43.11a1.36,1.36,0,0,0-1.9-.13l-2.44-2.61,1.22-3.93-.27-.09-1.25,4,0,.08,2.56,2.73a1.35,1.35,0,0,0,0,1.92A1.46,1.46,0,0,0,24.28,43.11Z"/><path class="cls-4" d="M8.94,48.11A1.36,1.36,0,0,0,7,48L3.34,44.05,1.5,48.52l.27.11,1.67-4.06,3.38,3.62a1.35,1.35,0,0,0,0,1.91A1.45,1.45,0,0,0,8.94,48.11Z"/><path class="cls-4" d="M18.17,30.11a1.57,1.57,0,0,0,.37.28l-.78,1.87-4.05,1,.07.28,4.12-1,.07,0,.84-2a1.47,1.47,0,0,0,1.48-2.39A1.45,1.45,0,0,0,18.17,30.11Z"/><g class="cls-3"><path class="cls-4" d="M24.48,17.34l-.73,2.4-2.34.55-1.72-1.83-2.54.59-.73,2.4L14,22l0,.17,2.4-.56,1.68,1.79,0,0,2.44-.57,1.64,1.76L21.54,27l1.71,1.83-.9,2.52.17.06.89-2.53,2.35-.55,1.65,1.76-.48,1.57a.87.87,0,0,0-.77,1.44.8.8,0,0,0,1.15.06l1.15,1.24,2.54-.6.73-2.4,2.63-.78,0-.16-2.63.77L30,29.44h-.05l-2.4.56-1.64-1.75.7-2.31L29,25.38l.73-2.4,2.35-.55,1.71,1.83,2.54-.59.73-2.4,2.31-.49,0-.17-2.32.49-1.71-1.83-1.61.37a.79.79,0,0,0-.18-.28.86.86,0,0,0-1.26,1.18.94.94,0,0,0,.24.18l-.47,1.54-2.34.55-1.64-1.75.73-2.41L27.1,16.83l1-2.65L28,14.11l-1,2.66Zm2.49-.4,1.64,1.75L27.91,21l-2.35.55-1.64-1.76.7-2.3Zm-3.18,3,1.65,1.76L25,23.2a.92.92,0,0,0-1,1l-1.56.36-1.64-1.76.7-2.3Zm-5.56,3.35L16.59,21.5l.7-2.31,2.34-.54,1.65,1.76-.7,2.3Zm4.2,1.43L24,24.33a.82.82,0,0,0,.2.31.8.8,0,0,0,1.13.07l1.11,1.19-.7,2.31-2.34.54L21.73,27Zm6.09,9.55-1.09-1.16a.84.84,0,0,0-.33-1.34l.47-1.56,2.35-.55,1.65,1.76-.7,2.31Zm6.76-14.78,1.64,1.76-.7,2.3-2.34.55-1.64-1.76.46-1.53a.91.91,0,0,0,1.08-1ZM28.9,25.23l-2.35.55L25.44,24.6a.81.81,0,0,0,0-1.14.75.75,0,0,0-.3-.21l.47-1.53L28,21.17l1.65,1.76Z"/><path class="cls-4" d="M32,31.69l-.16-.05L31.12,34l0,0,1.62,1.74a.81.81,0,0,0,0,1.13A.87.87,0,0,0,34,35.75a.8.8,0,0,0-1.14-.06L31.3,34Z"/><path class="cls-4" d="M37.34,21.47l-.16,0-.73,2.47L37.53,25a.79.79,0,0,0,0,1.11A.86.86,0,0,0,38.81,25a.81.81,0,0,0-1.16,0l-1-1.07Z"/><path class="cls-4" d="M14.3,17.26a.82.82,0,0,0,1.13.08l1.45,1.55-.73,2.34.17.05.74-2.39,0-.05-1.52-1.62a.8.8,0,0,0,0-1.14A.86.86,0,0,0,14.3,17.26Z"/><path class="cls-4" d="M23.42,14.29a.8.8,0,0,0,1.13.07l2.2,2.34L27.84,14,27.68,14l-1,2.41-2-2.15a.8.8,0,0,0,0-1.13A.86.86,0,0,0,23.42,14.29Z"/><path class="cls-4" d="M17.93,25a.69.69,0,0,0-.22-.17l.47-1.11,2.4-.57,0-.17-2.45.58h0l-.5,1.19a.87.87,0,0,0-.88,1.42A.86.86,0,0,0,17.93,25Z"/><path class="cls-4" d="M31.77,27a.8.8,0,0,0-1.15-.06l-1.34-1.42L30,23.15l-.17,0-.73,2.47,1.4,1.5a.8.8,0,0,0,0,1.11A.86.86,0,0,0,31.77,27Z"/></g><g class="cls-10"><path class="cls-4" d="M37.76,35.6l1.07,2-1.15,1.84-2.26-.07-1.24,2,1.06,2-1.17,1.88.14.08,1.17-1.88,2.21.07h0l1.19-1.92,2.16.08,1.07,2,2.26.07,1,2.18.15-.07-1-2.18,1.14-1.84,2.17.07.69,1.3a.79.79,0,0,0,.43,1.41.73.73,0,0,0,.78-.69l1.51.05,1.24-2-1.06-2,1.18-2.17-.14-.08-1.18,2.17L49,39.8l0,0h0l-1.17,1.88-2.16-.07-1-1.91,1.19-1.92-1.07-2L45.86,34l2.25.07,1.25-2-1.07-2,1.17-1.79-.13-.08L48.16,30l-2.26-.07-.79,1.26a.82.82,0,0,0-.29-.07.78.78,0,0,0,0,1.56.77.77,0,0,0,.27,0l.68,1.28-1.14,1.84-2.16-.07-1.07-2L39.1,33.6l-1-2.34-.14.07,1,2.34Zm1.33-1.84,2.16.07,1,1.91-1.14,1.85L39,37.52l-1-1.92ZM39,37.67l2.16.07L41.8,39a.84.84,0,0,0,0,1.27L41,41.5l-2.16-.07-1-1.91Zm-1.41,5.68-2.17-.08-1-1.91,1.14-1.84,2.17.07,1,1.91Zm3.58-1.76.76-1.23a.7.7,0,0,0,.33.08.73.73,0,0,0,.77-.68l1.45.05,1,1.92-1.15,1.84-2.16-.07Zm10,2.2-1.43,0A.72.72,0,0,0,49,43a.76.76,0,0,0-.35.06l-.69-1.3L49.05,40l2.17.07,1,1.92ZM46,30.07l2.17.07,1,1.91L48,33.9l-2.17-.07-.67-1.27a.82.82,0,0,0,.06-1.31Zm-.38,7.74-1.15,1.84-1.46,0a.74.74,0,0,0-.72-.73.88.88,0,0,0-.33.06l-.67-1.27,1.14-1.84,2.17.07Z"/><path class="cls-4" d="M51.7,39.93l-.13.07,1,2,0,0,2.14.07a.71.71,0,0,0,.72.71.78.78,0,0,0,0-1.55.72.72,0,0,0-.77.68l-2-.07Z"/><path class="cls-4" d="M48.58,30l-.13.07,1.11,2,1.41,0a.73.73,0,0,0,.72.7.78.78,0,0,0,.05-1.56A.72.72,0,0,0,51,32l-1.32,0Z"/><path class="cls-4" d="M31.22,42a.72.72,0,0,0,.77-.67l1.91.06,1,2,.14-.08-1-2,0,0-2-.07a.73.73,0,0,0-.72-.73A.78.78,0,0,0,31.22,42Z"/><path class="cls-4" d="M35.14,34.33a.74.74,0,0,0,.77-.68l2.89.1-1-2.39-.15.06.91,2.17-2.65-.09a.73.73,0,0,0-.72-.73A.78.78,0,0,0,35.14,34.33Z"/><path class="cls-4" d="M38.46,44.64a1,1,0,0,0-.25,0l-.41-1L39,41.77l-.13-.08-1.19,1.93,0,0,.45,1.08a.78.78,0,1,0,.39-.09Z"/><path class="cls-4" d="M48.56,37.11a.74.74,0,0,0-.78.7L46,37.75l-1.06-2-.14.08,1.11,2,1.84.06a.73.73,0,0,0,.72.7A.78.78,0,0,0,48.56,37.11Z"/></g><g class="cls-7"><path class="cls-4" d="M63.23,37.32,62.72,39l-1.62.38L59.91,38.1l-1.77.41-.5,1.66L56,40.56l0,.12,1.67-.39,1.16,1.24,0,0,1.69-.4,1.14,1.22-.5,1.67,1.18,1.27-.62,1.75.12,0,.62-1.76L64.12,45l1.14,1.22-.33,1.09a.61.61,0,0,0-.54,1,.56.56,0,0,0,.8,0l.8.86,1.76-.41.51-1.67,1.82-.54,0-.11L68.23,47,67,45.71h0l-1.67.39-1.13-1.22.48-1.6,1.7-.39.5-1.67,1.63-.38,1.19,1.27,1.76-.41.5-1.66,1.61-.34,0-.12-1.6.34-1.19-1.27-1.12.26a.47.47,0,0,0-.12-.2.6.6,0,0,0-.88.82.64.64,0,0,0,.17.13l-.32,1.07-1.63.38L65.72,39.9l.51-1.67L65,37l.71-1.84-.11,0-.71,1.84ZM65,37.05l1.14,1.21-.48,1.6L64,40.24,62.84,39l.48-1.6Zm-2.2,2.06,1.14,1.21-.32,1.07a.63.63,0,0,0-.71.66l-1.08.25-1.14-1.22.48-1.59ZM58.9,41.43l-1.15-1.22.49-1.6,1.63-.38L61,39.45l-.49,1.6Zm2.9,1,1.08-.25a.68.68,0,0,0,.14.22.57.57,0,0,0,.79,0l.76.82-.48,1.6-1.63.38L61.32,44ZM66,49.05l-.75-.81a.56.56,0,0,0,0-.78.65.65,0,0,0-.23-.15l.33-1.08L67,45.85l1.14,1.22-.48,1.6Zm4.69-10.26L71.86,40l-.49,1.6L69.75,42l-1.14-1.22.32-1.06a.63.63,0,0,0,.74-.68Zm-4.43,4-1.63.38-.77-.82a.54.54,0,0,0,0-.78.55.55,0,0,0-.2-.15L64,40.36,65.64,40l1.14,1.22Z"/><path class="cls-4" d="M68.46,47.27l-.11,0-.52,1.65v0l1.12,1.2a.55.55,0,0,0,0,.78.6.6,0,0,0,.87-.82.56.56,0,0,0-.79,0L68,48.9Z"/><path class="cls-4" d="M72.15,40.19l-.12,0-.5,1.72.75.79a.55.55,0,0,0,0,.77.6.6,0,0,0,.87-.82.55.55,0,0,0-.8,0l-.69-.75Z"/><path class="cls-4" d="M56.17,37.27a.56.56,0,0,0,.78,0l1,1.08L57.45,40l.12,0,.51-1.65v0L57,37.24a.55.55,0,0,0,0-.79C56.52,35.88,55.64,36.7,56.17,37.27Z"/><path class="cls-4" d="M62.49,35.2a.56.56,0,0,0,.79.06l1.52,1.62L65.56,35l-.11,0-.69,1.67-1.4-1.49a.55.55,0,0,0,0-.78A.6.6,0,0,0,62.49,35.2Z"/><path class="cls-4" d="M58.69,42.63a.61.61,0,0,0-.16-.12l.33-.77,1.66-.39,0-.12-1.7.4h0l-.35.82a.61.61,0,0,0-.61,1A.6.6,0,0,0,58.69,42.63Z"/><path class="cls-4" d="M68.28,44a.56.56,0,0,0-.8,0l-.92-1,.49-1.65-.12,0L66.42,43l1,1a.55.55,0,0,0,0,.77A.6.6,0,0,0,68.28,44Z"/></g><path class="cls-4" d="M17.51,47.74,17,49.4l-1.62.38-1.19-1.27-1.77.41-.5,1.67L10.26,51l0,.12L12,50.7,13.11,52l0,0,1.7-.39L16,52.8l-.5,1.66,1.18,1.27L16,57.48l.12,0,.62-1.75,1.63-.38,1.14,1.22-.33,1.08a.62.62,0,0,0-.54,1,.57.57,0,0,0,.8,0l.8.85L22,59.18l.51-1.67L24.36,57l0-.12-1.82.54-1.19-1.27h0l-1.67.38-1.14-1.21.49-1.6,1.69-.4.51-1.66,1.63-.38L24,52.53l1.77-.41.5-1.66,1.61-.34,0-.11-1.6.33L25,49.07l-1.11.26a.53.53,0,0,0-.12-.2c-.53-.56-1.41.26-.88.82a.64.64,0,0,0,.17.13l-.32,1.07-1.63.38L20,50.31l.51-1.66-1.19-1.27L20,45.54l-.11,0-.71,1.84Zm1.72-.28,1.14,1.22-.48,1.6-1.63.37-1.14-1.21.48-1.6ZM17,49.52l1.14,1.22-.32,1.06a.64.64,0,0,0-.71.66l-1.08.25L14.92,51.5l.48-1.6Zm-3.85,2.32L12,50.62l.49-1.6,1.63-.38,1.14,1.22-.49,1.6Zm2.9,1,1.08-.26a.59.59,0,0,0,.14.22.57.57,0,0,0,.79.05l.76.82-.48,1.6-1.63.38L15.6,54.43Zm4.23,6.62-.75-.81a.55.55,0,0,0,0-.77.57.57,0,0,0-.23-.16l.33-1.08,1.63-.38,1.14,1.22-.48,1.6ZM25,49.2l1.15,1.22L25.65,52,24,52.4l-1.14-1.21.33-1.07a.62.62,0,0,0,.74-.67Zm-4.42,4-1.63.38-.77-.82a.6.6,0,0,0-.2-.94l.32-1.06,1.63-.38,1.14,1.22Z"/><path class="cls-4" d="M22.74,57.69l-.12,0-.51,1.66v0l1.12,1.2a.56.56,0,0,0,0,.79.6.6,0,0,0,.87-.82.55.55,0,0,0-.79,0l-1.08-1.15Z"/><path class="cls-4" d="M26.43,50.6l-.12,0-.5,1.71.74.79a.57.57,0,0,0,0,.78.6.6,0,0,0,.87-.82.56.56,0,0,0-.8,0l-.7-.74Z"/><path class="cls-4" d="M10.45,47.68a.56.56,0,0,0,.78,0l1,1.08-.51,1.62.12,0,.51-1.66v0l-1-1.13a.55.55,0,0,0,0-.79A.6.6,0,0,0,10.45,47.68Z"/><path class="cls-4" d="M16.77,45.62a.57.57,0,0,0,.79.05l1.52,1.63.76-1.85-.12-.05L19,47.08l-1.4-1.49a.55.55,0,0,0,0-.79A.6.6,0,0,0,16.77,45.62Z"/><path class="cls-4" d="M13,53a.61.61,0,0,0-.16-.12l.33-.77,1.66-.39,0-.12-1.7.4h0l-.35.83A.6.6,0,1,0,13,53Z"/><path class="cls-4" d="M22.56,54.44a.55.55,0,0,0-.8,0l-.92-1,.48-1.64-.11,0-.51,1.71,1,1a.56.56,0,0,0,0,.78A.6.6,0,0,0,22.56,54.44Z"/><g class="cls-6"><path class="cls-4" d="M74,34.45l-.55-1,.59-.94,1.16,0,.64-1-.55-1,.6-1-.07,0-.6,1-1.13,0h0l-.61,1-1.11,0-.55-1-1.16,0-.53-1.11-.07,0,.53,1.12-.59.95-1.11,0-.36-.67a.4.4,0,0,0-.22-.72.37.37,0,0,0-.39.35l-.78,0-.64,1,.55,1-.61,1.11.07,0,.61-1.11,1.16,0v0h0l.6-1,1.11,0,.53,1-.62,1,.55,1-.59.94-1.16,0-.63,1,.54,1-.59.92.06,0,.6-.91,1.16,0,.4-.64A.4.4,0,1,0,70.4,36l-.14,0-.35-.66.59-.94,1.11,0,.55,1,1.15,0,.53,1.2.08,0-.54-1.21Zm-.68.95-1.11,0-.53-1,.59-1,1.11,0,.53,1Zm.06-2-1.11,0-.35-.65a.43.43,0,0,0,0-.65l.39-.62,1.11,0,.52,1Zm.73-2.91,1.11,0,.52,1-.58.94-1.12,0-.52-1Zm-1.84.9-.39.63a.47.47,0,0,0-.17,0,.36.36,0,0,0-.39.35l-.75,0-.53-1,.59-.95,1.11,0Zm-5.12-1.13.74,0a.37.37,0,0,0,.37.37.34.34,0,0,0,.18,0l.35.67-.59.94-1.11,0-.52-1Zm2.63,7-1.12,0-.52-1,.59-.94,1.11,0,.35.66a.42.42,0,0,0,0,.67Zm.2-4,.59-1,.74,0a.38.38,0,0,0,.37.37.43.43,0,0,0,.17,0l.35.65-.59,1-1.11,0Z"/><path class="cls-4" d="M66.84,32.23l.07,0-.53-1v0l-1.1,0a.36.36,0,0,0-.37-.36.4.4,0,0,0,0,.79.37.37,0,0,0,.4-.35l1,0Z"/><path class="cls-4" d="M68.44,37.31l.07,0-.57-1-.72,0a.37.37,0,0,0-.37-.35.4.4,0,0,0,0,.79.38.38,0,0,0,.4-.36l.68,0Z"/><path class="cls-4" d="M77.35,31.15a.37.37,0,0,0-.39.35l-1,0-.53-1-.07,0,.54,1v0l1,0a.37.37,0,0,0,.38.37A.4.4,0,0,0,77.35,31.15Z"/><path class="cls-4" d="M75.34,35.11a.36.36,0,0,0-.39.34l-1.48-.05L74,36.63l.07,0-.46-1.11,1.36,0a.36.36,0,0,0,.37.37A.4.4,0,0,0,75.34,35.11Z"/><path class="cls-4" d="M73.64,29.81a.28.28,0,0,0,.13,0l.21.51-.6,1,.07,0,.61-1v0l-.23-.55a.4.4,0,0,0-.17-.75A.4.4,0,0,0,73.64,29.81Z"/><path class="cls-4" d="M68.46,33.68a.37.37,0,0,0,.39-.36l.9,0,.55,1,.07,0-.57-1-1,0a.37.37,0,0,0-.37-.36A.4.4,0,0,0,68.46,33.68Z"/></g><g class="cls-10"><path class="cls-4" d="M28.22,65.19l1-.54.94.59,0,1.16,1,.63,1-.54,1,.6,0-.07-1-.6,0-1.14v0l-1-.61,0-1.12,1-.54,0-1.16,1.12-.53,0-.08-1.12.54-.95-.59,0-1.11.67-.36a.4.4,0,0,0,.72-.22.38.38,0,0,0-.36-.4l0-.77-1-.64-1,.55-1.11-.61,0,.07,1.11.6,0,1.16h0l1,.6,0,1.11-1,.52-1-.61-1,.55L27.39,61l0-1.16-1-.64-1,.55-.92-.6,0,.07.91.6,0,1.16.64.4a.33.33,0,0,0,0,.15.4.4,0,0,0,.8,0,.59.59,0,0,0,0-.14l.65-.35.95.58,0,1.11-1,.55,0,1.16L26,65l0,.07,1.21-.53Zm-.94-.68,0-1.11,1-.52.95.59,0,1.11-1,.52Zm2,.07,0-1.11.65-.35a.43.43,0,0,0,.65,0l.62.39,0,1.11-1,.53Zm2.91.72,0,1.12-1,.52-.94-.59,0-1.11,1-.53Zm-.9-1.84-.63-.39a.39.39,0,0,0-.31-.56l0-.75,1-.52.94.59,0,1.11Zm1.13-5.11,0,.73a.38.38,0,0,0-.36.37.48.48,0,0,0,0,.18l-.66.36-.95-.59,0-1.11,1-.53Zm-7,2.62,0-1.11,1-.52.94.58,0,1.11-.65.35a.42.42,0,0,0-.67,0Zm4,.2.95.59,0,.75a.37.37,0,0,0-.37.37.47.47,0,0,0,0,.17l-.65.35-.95-.59,0-1.11Z"/><path class="cls-4" d="M30.45,58l0,.07,1-.54h0l0-1.1a.37.37,0,0,0,.36-.37.4.4,0,0,0-.8,0,.38.38,0,0,0,.36.39l0,1Z"/><path class="cls-4" d="M25.37,59.64l0,.07,1-.57,0-.73a.35.35,0,0,0,.35-.37.4.4,0,0,0-.8,0,.38.38,0,0,0,.37.39l0,.68Z"/><path class="cls-4" d="M31.52,68.55a.38.38,0,0,0-.34-.4l0-1,1-.52,0-.07-1,.53h0l0,1a.36.36,0,0,0-.37.37A.4.4,0,0,0,31.52,68.55Z"/><path class="cls-4" d="M27.57,66.54a.36.36,0,0,0-.34-.39l.05-1.49-1.23.51,0,.08,1.11-.47,0,1.36a.38.38,0,0,0-.38.37A.4.4,0,0,0,27.57,66.54Z"/><path class="cls-4" d="M32.86,64.84a.5.5,0,0,0,0,.12l-.51.21-1-.6,0,.07,1,.61h0l.55-.22a.4.4,0,1,0,0-.2Z"/><path class="cls-4" d="M29,59.65a.38.38,0,0,0,.36.4l0,.9-1,.55,0,.07L29.41,61l0-1a.37.37,0,0,0,.36-.37A.4.4,0,0,0,29,59.65Z"/></g><g class="cls-5"><path class="cls-4" d="M36.63,72.06l.23-.77.75-.18.55.59.82-.19.23-.77.77-.18,0,0-.76.18-.54-.58h0l-.78.19-.53-.57.23-.77L37,68.37l.28-.81-.05,0-.29.81-.75.18L35.7,68l.15-.51a.28.28,0,0,0,.24-.46.25.25,0,0,0-.36,0l-.37-.39-.82.19-.23.77-.84.25,0,0,.84-.25.54.59h0l.77-.18.52.57L36,69.3l-.78.19-.24.76-.75.18-.55-.59-.81.19-.23.77-.74.16V71l.74-.15.55.58.51-.12a.24.24,0,0,0,.06.09.28.28,0,0,0,.4-.38l-.07,0,.15-.5.74-.17.53.56-.23.77.55.58-.33.85.05,0,.33-.85Zm-.79.13-.53-.57.22-.73.76-.18.52.56-.22.74Zm1-1-.52-.57.14-.49a.29.29,0,0,0,.33-.3l.5-.12.53.56-.23.74Zm1.78-1.08.53.57-.23.73-.75.18-.52-.56.22-.74Zm-1.34-.45-.5.11a.27.27,0,0,0-.06-.1.25.25,0,0,0-.36,0L36,69.32l.23-.74.74-.17.53.56Zm-1.95-3.06.35.37a.25.25,0,0,0,0,.36.3.3,0,0,0,.1.07l-.15.5-.75.18-.53-.57.23-.73Zm-2.16,4.73-.53-.56.22-.74.76-.17.52.56L34,71a.28.28,0,0,0-.34.31Zm2-1.85.75-.17.35.38a.25.25,0,0,0,0,.36.31.31,0,0,0,.09.07l-.15.49-.75.17L35,70.27Z"/><path class="cls-4" d="M34.22,67.47h.05l.24-.76h0L34,66.15a.24.24,0,0,0,0-.36c-.24-.26-.64.12-.4.38a.25.25,0,0,0,.36,0l.5.53Z"/><path class="cls-4" d="M32.52,70.74h0L32.8,70l-.34-.36a.26.26,0,0,0,0-.36.28.28,0,0,0-.4.38.26.26,0,0,0,.37,0l.32.35Z"/><path class="cls-4" d="M39.89,72.08a.25.25,0,0,0-.36,0l-.47-.5.24-.75h-.06l-.23.76v0l.49.52a.25.25,0,0,0,0,.36A.28.28,0,0,0,39.89,72.08Z"/><path class="cls-4" d="M37,73a.25.25,0,0,0-.36,0l-.7-.75-.35.85,0,0,.32-.77.64.69a.24.24,0,0,0,0,.36A.28.28,0,0,0,37,73Z"/><path class="cls-4" d="M38.73,69.61l.07.06-.15.35-.77.18v.06l.79-.19h0l.16-.38a.28.28,0,0,0,.28-.46A.28.28,0,0,0,38.73,69.61Z"/><path class="cls-4" d="M34.3,69a.27.27,0,0,0,.37,0l.43.45-.23.76h.05l.24-.78L34.71,69a.26.26,0,0,0,0-.36C34.46,68.33,34.06,68.71,34.3,69Z"/></g><g class="cls-8"><path class="cls-4" d="M78.08,29.12l.81-.43.75.46,0,.92.81.51.81-.44.77.48,0-.05-.76-.48,0-.9v0l-.78-.48,0-.88.81-.44,0-.91.88-.43,0-.05-.88.42-.75-.47,0-.88.53-.28a.32.32,0,0,0,.57-.18.29.29,0,0,0-.28-.31l0-.62-.81-.5-.81.43L79,23.11l0,.06.88.48,0,.92h0l.76.47,0,.88-.77.42L79,25.86l-.81.43-.75-.46,0-.92-.81-.5-.81.43-.73-.47,0,.05.72.47,0,.92.51.32a.5.5,0,0,0,0,.12.32.32,0,0,0,.63,0,.36.36,0,0,0,0-.11l.52-.28.75.47,0,.88-.81.43,0,.92-1,.42,0,.06,1-.43Zm-.74-.54,0-.88.77-.41.75.46,0,.88-.77.42Zm1.59.05,0-.88.51-.27a.34.34,0,0,0,.52,0l.49.31,0,.88-.77.42Zm2.3.58,0,.88-.77.41L79.68,30l0-.88.77-.42Zm-.71-1.46-.5-.31a.28.28,0,0,0,0-.13.29.29,0,0,0-.27-.31l0-.6.78-.41.74.46,0,.88Zm.89-4.05,0,.58a.29.29,0,0,0-.28.29.52.52,0,0,0,0,.14l-.52.29-.75-.47,0-.88.77-.42Zm-5.57,2.08,0-.88.77-.42.75.47,0,.88-.51.27a.33.33,0,0,0-.53,0Zm3.14.15.75.47,0,.59a.31.31,0,0,0-.29.3.51.51,0,0,0,0,.13l-.51.28-.75-.47,0-.88Z"/><path class="cls-4" d="M79.85,23.45l0,.06.81-.43h0l0-.87a.3.3,0,0,0,.29-.3.32.32,0,0,0-.63,0,.29.29,0,0,0,.28.31l0,.84Z"/><path class="cls-4" d="M75.82,24.72l0,.06.83-.45,0-.58a.29.29,0,0,0,.28-.29.32.32,0,0,0-.63,0,.29.29,0,0,0,.29.31l0,.54Z"/><path class="cls-4" d="M80.7,31.78a.31.31,0,0,0-.27-.32l0-.77.8-.42,0-.06-.81.43h0l0,.81a.3.3,0,0,0-.3.3A.32.32,0,0,0,80.7,31.78Z"/><path class="cls-4" d="M77.57,30.19a.31.31,0,0,0-.28-.32l0-1.17-1,.41,0,.05.88-.36,0,1.07a.29.29,0,0,0-.29.3A.32.32,0,0,0,77.57,30.19Z"/><path class="cls-4" d="M81.76,28.84a.34.34,0,0,0,0,.1l-.41.16-.77-.47,0,.05.78.49h0l.43-.18a.32.32,0,0,0,.6-.14A.32.32,0,0,0,81.76,28.84Z"/><path class="cls-4" d="M78.7,24.73a.3.3,0,0,0,.28.32l0,.71-.8.43,0,.06L79,25.8l0-.75a.31.31,0,0,0,.29-.3A.32.32,0,0,0,78.7,24.73Z"/></g></g><g class="cls-9"><path class="cls-4" d="M150.61,59.23l-1.91,2.43,1.57,3.91L148,68.16a1.14,1.14,0,0,0-.76-.25,1.25,1.25,0,0,0,0,2.5,1.26,1.26,0,0,0,1-2l2.26-2.61.11,0v-.3h-.07L149,61.71l1.58-2Zm0-11.92V47l-3.91-.56-2.6,3.31L140,49.19l0,.28,4.09.59,1.54,3.85,0,.07,4.19.6.8,2V55.8l-.53-1.33.53-.68v-.48l-.77,1-4-.57L144.32,50l2.51-3.19Z"/><path class="cls-4" d="M143.34,41.91a1.34,1.34,0,0,0,1.71.81L146.38,46l-2.57,3.22.23.18,2.62-3.28.06-.07-1.4-3.47a1.36,1.36,0,0,0,.72-1.79A1.45,1.45,0,0,0,143.34,41.91Z"/><path class="cls-4" d="M144.3,56.24a1.49,1.49,0,0,0-.23-.39l1.4-1.46,4.12.58,0-.29-4.19-.59h-.08l-1.5,1.56a1.47,1.47,0,0,0-2.25,1.69A1.45,1.45,0,0,0,144.3,56.24Z"/><g class="cls-3"><path class="cls-4" d="M133.79,65.85l1.55-2,2.39.34.93,2.33,2.58.37,1.55-2,2.44.35,0-.17-2.43-.35-.92-2.29,0,0-2.48-.36-.9-2.23,1.55-2-.93-2.32,1.75-2-.13-.11-1.75,2-2.39-.34-.9-2.24,1-1.29A.87.87,0,0,0,138,50.52a.82.82,0,0,0-1.05-.48l-.63-1.56-2.58-.37-1.55,2-2.73-.23,0,.17,2.73.24.93,2.32h.05l2.43.35.9,2.23L135,57.06l-2.48-.35-1.55,2-2.39-.34L127.6,56,125,55.65l-1.55,2-2.34-.39,0,.17,2.33.39.94,2.33,1.63.23a.77.77,0,0,0,.06.33.86.86,0,0,0,1.6-.64.76.76,0,0,0-.16-.26l1-1.27,2.38.34.9,2.23-1.55,2,.93,2.32-1.92,2.1.13.12,1.92-2.11Zm-2.46-.53-.9-2.23,1.49-1.89,2.39.34.89,2.23-1.49,1.9Zm4-1.61-.89-2.24,1-1.25a.93.93,0,0,0,1.3-.52l1.58.22.9,2.23-1.49,1.9Zm6.4-1.11.9,2.24-1.49,1.9-2.39-.35-.89-2.23,1.48-1.9Zm-3.39-2.85-1.58-.23a1,1,0,0,0-.07-.36.79.79,0,0,0-1-.48l-.6-1.5,1.49-1.9,2.38.34.9,2.24Zm-2.21-11.11.59,1.47a.8.8,0,0,0-.39,1,.76.76,0,0,0,.22.32l-1,1.29-2.39-.35-.89-2.23,1.49-1.9ZM124.5,60l-.9-2.23,1.49-1.9,2.39.34.89,2.23-1,1.26a.91.91,0,0,0-1.36.52Zm8-3.06,2.39.34.6,1.5a.81.81,0,0,0-.41,1.06.87.87,0,0,0,.2.31l-1,1.25L132,61l-.9-2.23Z"/><path class="cls-4" d="M132,49.74l.13.11,1.56-2,0,0-.89-2.21a.8.8,0,0,0,.41-1,.87.87,0,0,0-1.61.64.81.81,0,0,0,1,.48l.85,2.11Z"/><path class="cls-4" d="M123.31,57.34l.13.1,1.57-2L124.43,54a.81.81,0,0,0,.38-1.05.86.86,0,0,0-1.6.64.8.8,0,0,0,1.06.47l.54,1.37Z"/><path class="cls-4" d="M143.24,69.62a.81.81,0,0,0-1-.48l-.79-2L143,65.25l-.13-.1-1.56,1.95,0,0,.82,2.06a.82.82,0,0,0-.42,1.07A.86.86,0,0,0,143.24,69.62Z"/><path class="cls-4" d="M133.67,69.08a.81.81,0,0,0-1-.48l-1.19-3-2,2.09.12.12,1.8-1.89,1.09,2.73a.8.8,0,0,0-.41,1.06A.86.86,0,0,0,133.67,69.08Z"/><path class="cls-4" d="M142.67,61.1a1.08,1.08,0,0,0,.14.24l-.83.87-2.45-.35,0,.17,2.5.36h0l.89-.93a.87.87,0,0,0,1.34-1A.86.86,0,0,0,142.67,61.1Z"/><path class="cls-4" d="M130.5,54.2a.81.81,0,0,0,1.06.48l.72,1.81-1.51,1.95.14.1,1.57-2-.76-1.9a.81.81,0,0,0,.39-1A.87.87,0,0,0,130.5,54.2Z"/></g><g class="cls-10"><path class="cls-4" d="M128,44l-.27-2.24,1.74-1.3,2.08.89L133.47,40l-.27-2.25L135,36.38l-.09-.12-1.77,1.33-2-.87,0,0-1.81,1.35-2-.85L127,35l-2.08-.89-.17-2.41-.16,0,.18,2.41L123,35.39l-2-.85-.18-1.47a.79.79,0,0,0,.11-1.47.73.73,0,0,0-1,.36l-1.39-.59-1.88,1.41L117,35l-1.89,1.6.1.12,1.88-1.59,2.08.88,0,0h0l1.78-1.33,2,.85.26,2.16L121.38,39l.27,2.25-1.74,1.3-2.08-.89L116,43.11l.27,2.24-1.73,1.24.09.13,1.74-1.24,2.08.89,1.18-.89a1.21,1.21,0,0,0,.25.17.78.78,0,0,0,.62-1.43,1.08,1.08,0,0,0-.27-.07L120,42.71l1.73-1.3,2,.85.27,2.25,2.07.88.12,2.56h.15l-.11-2.56Zm-1.9,1.23-2-.85-.26-2.15,1.74-1.31,2,.86.26,2.15Zm1.54-3.6-2-.85-.17-1.43a.83.83,0,0,0,.49-1.16l1.16-.86,2,.85.26,2.15Zm3.37-4.77,2,.85.25,2.16-1.73,1.3-2-.86-.26-2.15Zm-4,.34-1.15.86a.77.77,0,0,0-.27-.19.74.74,0,0,0-1,.35l-1.33-.57-.26-2.16,1.73-1.3,2,.86Zm-8.48-5.67,1.31.56a.73.73,0,0,0,.42.92.91.91,0,0,0,.35.07l.17,1.46-1.74,1.3-2-.86-.26-2.15Zm-.22,14.64-2-.85-.26-2.16,1.74-1.3,2,.85.17,1.43a.83.83,0,0,0-.54,1.2Zm3.17-7.07,1.74-1.31,1.34.58a.73.73,0,0,0,.42.93.77.77,0,0,0,.32.07l.17,1.43-1.74,1.3-2-.85Z"/><path class="cls-4" d="M116.62,34.92l.16,0-.25-2.23v-.05l-2-.84a.72.72,0,0,0-.41-.93.78.78,0,0,0-.61,1.43.71.71,0,0,0,1-.36l1.89.81Z"/><path class="cls-4" d="M115.94,45.28l.15,0L115.8,43l-1.3-.56a.72.72,0,0,0-.42-.91.78.78,0,0,0-.62,1.43.73.73,0,0,0,1-.37l1.21.52Z"/><path class="cls-4" d="M136.47,40.4a.73.73,0,0,0-1,.34L133.75,40l-.25-2.19-.15,0,.25,2.23v.05l1.84.79a.72.72,0,0,0,.4.94A.78.78,0,0,0,136.47,40.4Z"/><path class="cls-4" d="M130,46.16a.72.72,0,0,0-1,.34l-2.66-1.13.06,2.59h.15l-.05-2.34,2.43,1a.73.73,0,0,0,.42.94A.78.78,0,0,0,130,46.16Z"/><path class="cls-4" d="M130.67,35.34a.84.84,0,0,0,.24.06l0,1.09-1.78,1.34.09.12,1.81-1.36,0,0,0-1.16a.79.79,0,0,0,.22-1.49A.78.78,0,0,0,130.67,35.34Z"/><path class="cls-4" d="M118.53,38.7a.72.72,0,0,0,1-.37l1.62.69.28,2.2.15,0-.29-2.29-1.7-.73a.72.72,0,0,0-.42-.91A.78.78,0,0,0,118.53,38.7Z"/></g><g class="cls-7"><path class="cls-4" d="M105.67,36.77l1-1.29,1.55.23.61,1.51,1.68.24,1-1.28,1.58.23V36.3l-1.58-.23L111,34.58l0,0-1.61-.23-.58-1.45,1-1.28-.6-1.52,1.14-1.31-.09-.08L109.05,30l-1.55-.22-.58-1.45.65-.84a.57.57,0,0,0,.81-.69.52.52,0,0,0-.68-.31l-.41-1-1.68-.24-1,1.28-1.77-.15v.11l1.77.16.61,1.51h0l1.58.23.58,1.45-1,1.23-1.61-.23-1,1.29-1.55-.23-.61-1.51L100,30.13l-1,1.28-1.52-.25,0,.11,1.52.25L99.55,33l1.06.15a.6.6,0,0,0,0,.22.56.56,0,0,0,1-.42.48.48,0,0,0-.1-.17l.65-.82,1.54.22.59,1.45-1,1.28.6,1.51-1.24,1.37.08.07,1.25-1.36Zm-1.6-.34L103.49,35l1-1.23L106,34l.58,1.46-1,1.23Zm2.62-1.06-.58-1.45.65-.82a.59.59,0,0,0,.84-.34l1,.15.58,1.45-1,1.24Zm4.16-.71.59,1.45-1,1.23-1.55-.22-.59-1.45,1-1.24Zm-2.2-1.86-1-.15a.66.66,0,0,0,0-.23.53.53,0,0,0-.67-.32l-.4-1,1-1.24,1.55.22.59,1.46Zm-1.44-7.23.39,1a.52.52,0,0,0-.26.68.46.46,0,0,0,.14.21l-.65.84L105.28,28l-.59-1.46,1-1.23Zm-7.58,7.37L99,31.48l1-1.23,1.55.22.58,1.46-.64.81a.59.59,0,0,0-.88.34Zm5.23-2,1.55.22.39,1a.52.52,0,0,0-.27.68.63.63,0,0,0,.13.2l-.64.82-1.55-.22-.58-1.45Z"/><path class="cls-4" d="M104.49,26.29l.08.07,1-1.27,0,0L105,23.63a.52.52,0,0,0,.27-.68.56.56,0,0,0-1,.41.53.53,0,0,0,.68.31l.55,1.38Z"/><path class="cls-4" d="M98.85,31.23l.09.07L100,30,99.58,29a.53.53,0,0,0,.25-.68.56.56,0,0,0-1,.41.52.52,0,0,0,.69.31l.35.89Z"/><path class="cls-4" d="M111.82,39.22a.52.52,0,0,0-.66-.31l-.52-1.28,1-1.25-.08-.07-1,1.27,0,0,.54,1.34a.52.52,0,0,0-.27.69A.56.56,0,0,0,111.82,39.22Z"/><path class="cls-4" d="M105.59,38.87a.52.52,0,0,0-.67-.31l-.77-1.94L102.86,38l.08.07,1.17-1.23.71,1.78a.53.53,0,0,0-.27.69A.56.56,0,0,0,105.59,38.87Z"/><path class="cls-4" d="M111.45,33.68a.38.38,0,0,0,.09.15l-.55.57-1.59-.23v.12l1.62.22h0l.58-.61a.57.57,0,0,0,.87-.65A.56.56,0,0,0,111.45,33.68Z"/><path class="cls-4" d="M103.53,29.19a.53.53,0,0,0,.69.31l.47,1.18-1,1.27.09.07,1-1.32-.5-1.24a.52.52,0,0,0,.25-.68A.56.56,0,0,0,103.53,29.19Z"/></g><path class="cls-4" d="M150.61,33.87v-.13l-.21,0-1.08,1.38-1.65-.25L147,33.23l-1.8-.26-1.08,1.37-1.61-.26,0,.11,1.62.27.64,1.61,1.14.17a.66.66,0,0,0,0,.23.6.6,0,0,0,1.12-.44.52.52,0,0,0-.12-.19l.7-.88,1.65.25.62,1.55-1.08,1.36.65,1.61-1.33,1.45.09.09,1.33-1.46,1,.15v-.12l-1-.15L149,38.14l1-1.31.59.08v-.12l-.57-.08-.62-1.55,1-1.31Zm-3.74,1.89a.63.63,0,0,0-.94.36L144.87,36l-.62-1.55,1-1.31,1.66.23.62,1.55Zm3.74-7.19-.43.55-1.9-.16v.12l1.9.16.44,1.11v-.3l-.34-.85.34-.43Z"/><polygon class="cls-4" points="150.62 28.19 150.62 28.38 150.16 28.96 150.06 28.88 150.62 28.19"/><path class="cls-4" d="M144.05,34.15l.09.08,1.09-1.42-.4-1a.54.54,0,0,0,.26-.72.6.6,0,0,0-1.11.44.57.57,0,0,0,.74.33l.38.94Z"/><path class="cls-4" d="M150.61,42v1.16a.54.54,0,0,1-.49-.37.56.56,0,0,1,.29-.73l-.76-1.9-1.25,1.31-.08-.08,1.37-1.44.83,2.06A.14.14,0,0,1,150.61,42Z"/><path class="cls-4" d="M149,32a.56.56,0,0,0,.73.33l.51,1.25-1.05,1.36.09.07,1.09-1.41-.53-1.32a.55.55,0,0,0,.27-.72A.6.6,0,0,0,149,32Z"/><g class="cls-6"><path class="cls-4" d="M93.86,35.93,94,37.09l-.89.66L92,37.3l-1,.72.13,1.15-.91.68,0,.07.91-.68,1,.44h0l.93-.69,1,.43.14,1.16,1.06.45.09,1.24h.08L95.56,41l.89-.67,1,.44.09.75a.41.41,0,0,0-.06.76.38.38,0,0,0,.5-.19l.71.31,1-.73-.14-1.15,1-.82,0-.06-1,.82L98.44,40l0,0h0l-.91.68-1-.44-.14-1.1.93-.7-.14-1.15.9-.67,1.06.46,1-.73-.13-1.15.89-.63,0-.07-.89.64-1.07-.46-.61.46a.25.25,0,0,0-.13-.09.4.4,0,0,0-.31.73.37.37,0,0,0,.14,0l.09.74-.89.66-1-.43-.13-1.16-1.07-.45-.06-1.31h-.08l.06,1.32Zm1-.63,1,.44L96,36.85l-.89.66-1-.43L94,36Zm-.79,1.85,1,.44.09.73a.43.43,0,0,0-.26.6l-.59.44-1-.44-.13-1.1ZM92.32,39.6l-1-.44-.13-1.1.89-.67,1,.44.13,1.1Zm2-.17L95,39a.36.36,0,0,0,.14.1.37.37,0,0,0,.49-.18l.69.29.13,1.11-.88.67-1-.44Zm4.35,2.91L98,42.05a.38.38,0,0,0-.22-.48l-.17,0-.09-.75.89-.67,1,.44.13,1.11Zm.11-7.52,1,.44.13,1.11-.89.66-1-.43L98,35.86a.41.41,0,0,0,.27-.61ZM97.2,38.45l-.9.67-.68-.29a.38.38,0,0,0-.22-.48.32.32,0,0,0-.16,0l-.09-.73.89-.67,1,.44Z"/><path class="cls-4" d="M99.72,40.6h-.08l.13,1.15v0l1,.44a.37.37,0,0,0,.22.47.4.4,0,0,0,.31-.73.38.38,0,0,0-.5.18l-1-.41Z"/><path class="cls-4" d="M100.07,35.29H100l.16,1.18.66.29a.36.36,0,0,0,.22.46.4.4,0,0,0,.31-.73.38.38,0,0,0-.5.19l-.62-.27Z"/><path class="cls-4" d="M89.54,37.79a.36.36,0,0,0,.49-.17l.9.38.13,1.13h.08L91,38v0l-1-.41a.36.36,0,0,0-.21-.48A.4.4,0,0,0,89.54,37.79Z"/><path class="cls-4" d="M92.84,34.84a.39.39,0,0,0,.5-.18l1.36.58,0-1.33h-.08l0,1.2-1.25-.53a.38.38,0,0,0-.21-.49A.4.4,0,0,0,92.84,34.84Z"/><path class="cls-4" d="M92.51,40.39a.27.27,0,0,0-.12,0V39.8l.91-.69-.05-.06-.93.7h0v.6a.4.4,0,0,0-.11.76A.4.4,0,0,0,92.51,40.39Z"/><path class="cls-4" d="M98.74,38.67a.38.38,0,0,0-.5.19l-.83-.36-.14-1.13h-.08l.15,1.18.87.37a.37.37,0,0,0,.22.47A.4.4,0,0,0,98.74,38.67Z"/></g><g class="cls-8"><path class="cls-4" d="M88.12,39.42l-.91.11-.53-.7L87,38l-.57-.76-.92.11L85,36.6l-.05,0,.54.72-.35.83v0l.55.73-.34.81-.92.11-.36.85-1,.07v.06l1-.07.53.71-.35.81-.59.07a.32.32,0,0,0-.6,0,.29.29,0,0,0,.15.4l-.24.56.57.77.91-.11.65.77,0,0-.65-.77.36-.84v0h0l-.54-.72.35-.81.87-.1.55.73L87,42l.53.71-.37.84.58.77.91-.11.5.7,0,0-.5-.7.36-.85-.36-.48a.36.36,0,0,0,.07-.1.32.32,0,0,0-.58-.25.23.23,0,0,0,0,.11l-.59.07L87.06,42l.34-.81.92-.1.36-.85,1,0v-.07l-1,0Zm.5.78-.35.81-.87.1-.53-.71.34-.81.88-.1Zm-1.46-.63-.35.81-.58.07a.34.34,0,0,0-.47-.2l-.36-.47.35-.81.88-.11Zm-2-1.37.35-.81.88-.11L87,38l-.35.81-.88.11Zm.14,1.62.35.46a.35.35,0,0,0-.07.12.29.29,0,0,0,.14.39l-.23.54-.88.11-.53-.71.35-.81Zm-2.3,3.44.23-.53a.29.29,0,0,0,.37-.17.39.39,0,0,0,0-.14l.59-.07.53.7-.35.82-.87.1Zm6,.09-.35.81-.87.11-.53-.71.34-.81.58-.07a.34.34,0,0,0,.49.22Zm-2.87-1.29-.54-.7.24-.55a.29.29,0,0,0,.38-.17.31.31,0,0,0,0-.13l.58-.07.53.71L87,42Z"/><path class="cls-4" d="M84.42,44.06V44l-.91.1h0l-.35.8a.29.29,0,0,0-.37.17.32.32,0,0,0,.58.25.3.3,0,0,0-.15-.39l.33-.77Z"/><path class="cls-4" d="M88.63,44.34v-.06l-.93.12-.23.53a.29.29,0,0,0-.37.17.32.32,0,0,0,.58.25.3.3,0,0,0-.15-.4l.21-.49Z"/><path class="cls-4" d="M86.65,36a.29.29,0,0,0,.14.39l-.31.71-.89.1v.07l.91-.11h0l.32-.75a.3.3,0,0,0,.39-.16A.32.32,0,0,0,86.65,36Z"/><path class="cls-4" d="M89,38.62a.29.29,0,0,0,.14.39l-.46,1.08,1,0V40l-1,0,.43-1a.29.29,0,0,0,.38-.17A.31.31,0,0,0,89,38.62Z"/><path class="cls-4" d="M84.59,38.35a.29.29,0,0,0,0-.1h.44l.54.72.05,0-.55-.73v0h-.48a.32.32,0,1,0,0,.16Z"/><path class="cls-4" d="M86,43.29a.29.29,0,0,0-.15-.4l.28-.65.9-.12v-.06l-.93.12-.3.69a.3.3,0,0,0-.37.17A.32.32,0,0,0,86,43.29Z"/></g></g></g></g></svg>